REM DIRINDEX 1\2\6,1\2\7,1\2\8,1\2\9,1\3\10,1\3\11,1\4\12,1\4\13,1\4\14,1\5\15,1\5\16,1\5\17
REM DIRNAME folder01,folder02,folder03,folder04,folder05,folder06,folder07,folder08,folder09,folder10,folder11,folder12,folder13,folder14,folder15,folder16,folder17
TITLE ""
FILE "1900_3_010 sec02_0146_0162.mp3" MP3
  TRACK 01 AUDIO
    TITLE "0:"
    INDEX 01 00:00:00
  TRACK 02 AUDIO
    TITLE "17:cjc020_6259"
    INDEX 01 00:00:17
  TRACK 03 AUDIO
    TITLE "0:"
    INDEX 01 00:01:32
  TRACK 04 AUDIO
    TITLE "16:cjc020_6260"
    INDEX 01 00:01:36
  TRACK 05 AUDIO
    TITLE "0:"
    INDEX 01 00:02:59
  TRACK 06 AUDIO
    TITLE "17:cjc020_6261"
    INDEX 01 00:03:45
  TRACK 07 AUDIO
    TITLE "0:"
    INDEX 01 00:04:42
  TRACK 08 AUDIO
    TITLE "16:cjc020_6262"
    INDEX 01 00:04:52
  TRACK 09 AUDIO
    TITLE "0:"
    INDEX 01 00:05:63
  TRACK 10 AUDIO
    TITLE "17:cjc020_6263"
    INDEX 01 00:06:47
  TRACK 11 AUDIO
    TITLE "0:"
    INDEX 01 00:07:58
  TRACK 12 AUDIO
    TITLE "16:cjc020_6264"
    INDEX 01 00:07:66
  TRACK 13 AUDIO
    TITLE "0:"
    INDEX 01 00:08:72
  TRACK 14 AUDIO
    TITLE "17:cjc020_6265"
    INDEX 01 00:09:55
  TRACK 15 AUDIO
    TITLE "0:"
    INDEX 01 00:10:68
  TRACK 16 AUDIO
    TITLE "16:cjc020_6266"
    INDEX 01 00:10:70
  TRACK 17 AUDIO
    TITLE "0:"
    INDEX 01 00:12:11
  TRACK 18 AUDIO
    TITLE "17:cjc020_6267"
    INDEX 01 00:12:69
  TRACK 19 AUDIO
    TITLE "0:"
    INDEX 01 00:14:02
  TRACK 20 AUDIO
    TITLE "16:cjc020_6268"
    INDEX 01 00:14:09
  TRACK 21 AUDIO
    TITLE "0:"
    INDEX 01 00:15:25
  TRACK 22 AUDIO
    TITLE "17:cjc020_6269"
    INDEX 01 00:16:10
  TRACK 23 AUDIO
    TITLE "0:"
    INDEX 01 00:18:17
  TRACK 24 AUDIO
    TITLE "16:cjc020_6270"
    INDEX 01 00:18:23
  TRACK 25 AUDIO
    TITLE "0:"
    INDEX 01 00:19:38
  TRACK 26 AUDIO
    TITLE "17:cjc020_6271"
    INDEX 01 00:20:24
  TRACK 27 AUDIO
    TITLE "0:"
    INDEX 01 00:21:25
  TRACK 28 AUDIO
    TITLE "16:cjc020_6272"
    INDEX 01 00:21:27
  TRACK 29 AUDIO
    TITLE "0:"
    INDEX 01 00:22:44
  TRACK 30 AUDIO
    TITLE "17:cjc020_6273"
    INDEX 01 00:23:26
  TRACK 31 AUDIO
    TITLE "0:"
    INDEX 01 00:24:27
  TRACK 32 AUDIO
    TITLE "16:cjc020_6274"
    INDEX 01 00:24:35
  TRACK 33 AUDIO
    TITLE "0:"
    INDEX 01 00:25:48
  TRACK 34 AUDIO
    TITLE "17:cjc020_6275"
    INDEX 01 00:26:30
  TRACK 35 AUDIO
    TITLE "0:"
    INDEX 01 00:27:43
  TRACK 36 AUDIO
    TITLE "16:cjc020_6276"
    INDEX 01 00:27:49
  TRACK 37 AUDIO
    TITLE "0:"
    INDEX 01 00:28:49
  TRACK 38 AUDIO
    TITLE "17:cjc020_6277"
    INDEX 01 00:29:36
  TRACK 39 AUDIO
    TITLE "0:"
    INDEX 01 00:31:35
  TRACK 40 AUDIO
    TITLE "16:cjc020_6278"
    INDEX 01 00:31:39
  TRACK 41 AUDIO
    TITLE "0:"
    INDEX 01 00:32:47
  TRACK 42 AUDIO
    TITLE "17:cjc020_6279"
    INDEX 01 00:33:34
  TRACK 43 AUDIO
    TITLE "0:"
    INDEX 01 00:34:49
  TRACK 44 AUDIO
    TITLE "16:cjc020_6280"
    INDEX 01 00:34:53
  TRACK 45 AUDIO
    TITLE "0:"
    INDEX 01 00:35:59
  TRACK 46 AUDIO
    TITLE "17:cjc020_6281"
    INDEX 01 00:36:40
  TRACK 47 AUDIO
    TITLE "0:"
    INDEX 01 00:37:50
  TRACK 48 AUDIO
    TITLE "16:cjc020_6282"
    INDEX 01 00:37:56
  TRACK 49 AUDIO
    TITLE "0:"
    INDEX 01 00:38:55
  TRACK 50 AUDIO
    TITLE "17:cjc020_6283"
    INDEX 01 00:39:45
  TRACK 51 AUDIO
    TITLE "0:"
    INDEX 01 00:40:73
  TRACK 52 AUDIO
    TITLE "16:cjc020_6284"
    INDEX 01 00:41:04
  TRACK 53 AUDIO
    TITLE "0:"
    INDEX 01 00:42:04
  TRACK 54 AUDIO
    TITLE "17:cjc020_6285"
    INDEX 01 00:42:61
  TRACK 55 AUDIO
    TITLE "0:"
    INDEX 01 00:43:70
  TRACK 56 AUDIO
    TITLE "16:cjc020_6286"
    INDEX 01 00:44:01
  TRACK 57 AUDIO
    TITLE "0:"
    INDEX 01 00:45:08
  TRACK 58 AUDIO
    TITLE "17:cjc020_6287"
    INDEX 01 00:45:71
  TRACK 59 AUDIO
    TITLE "0:"
    INDEX 01 00:47:01
  TRACK 60 AUDIO
    TITLE "16:cjc020_6288"
    INDEX 01 00:47:11
  TRACK 61 AUDIO
    TITLE "0:"
    INDEX 01 00:48:16
  TRACK 62 AUDIO
    TITLE "17:cjc020_6289"
    INDEX 01 00:48:71
  TRACK 63 AUDIO
    TITLE "0:"
    INDEX 01 00:49:65
  TRACK 64 AUDIO
    TITLE "16:cjc020_6290"
    INDEX 01 00:49:70
  TRACK 65 AUDIO
    TITLE "0:"
    INDEX 01 00:51:20
  TRACK 66 AUDIO
    TITLE "17:cjc020_6291"
    INDEX 01 00:52:00
  TRACK 67 AUDIO
    TITLE "0:"
    INDEX 01 00:53:25
  TRACK 68 AUDIO
    TITLE "16:cjc020_6292"
    INDEX 01 00:53:27
  TRACK 69 AUDIO
    TITLE "0:"
    INDEX 01 00:54:42
